<svg xmlns="http://www.w3.org/2000/svg" viewBox="0 0 1056 392" width="1056" height="392"><defs><clipPath id="a"><path d="M68.275 104.375h136v87h-136z"/></clipPath><clipPath id="b"><path d="M335.025 71.5h157.1v54h-157.1z"/></clipPath><clipPath id="c"><path d="M459.525 170.75h136v87h-136z"/></clipPath><clipPath id="d"><path d="M851.725 104.375h136v87h-136z"/></clipPath><clipPath id="e"><path d="M481.625 318h91.5v54h-91.5z"/></clipPath></defs><g fill="none"><path fill="#fff" d="M68.275 104.375h136v87h-136z"/><path clip-path="url(#a)" stroke="#dfdfdf" stroke-width="2" stroke-linecap="round" stroke-linejoin="round" d="M68.275 104.375h136v87h-136z"/></g><path fill="#dfdfdf" d="M84.275 152.375h104v1h-104z"/><text transform="translate(112.275 165.375)" fill="#757575"><tspan font-size="10" font-weight="400" x="0" y="9" font-family="Roboto">Cloud Datastore</tspan></text><text transform="translate(84.275 116.375)" fill="#212121"><tspan font-size="12" font-weight="400" x="24.561" y="11" font-family="Roboto">Titles with</tspan> <tspan font-size="12" font-weight="400" x="25.63" y="25" font-family="Roboto">identifiers</tspan></text><g fill="none"><title>Cloud Datastore</title><title>Fill-1</title><path d="M104.07 170.455l-4.116-7.16c-.33-.572-.929-.92-1.544-.92h-8.235c-.66 0-1.236.387-1.544.92l-4.117 7.145a1.796 1.796 0 0 0 0 1.79l4.117 7.192c.33.572.928.953 1.544.953h8.234c.66 0 1.236-.416 1.544-.949l4.118-7.16a1.836 1.836 0 0 0 0-1.811" fill="#4285f4"/><title>Fill-4</title><path d="M97.66 169.293l-1.49.119.007.965-1.093-1.093-1.444.164-.003.955-1.112-1.112-1.601 1.605.995.994-.966.036-.022 1.543 6.906 6.906h.572c.66 0 1.236-.416 1.545-.949l2.862-4.977z" fill="#000" fill-opacity=".07"/><title>Fill-6</title><path d="M92.39 169.233h-1.332a.19.19 0 0 0-.19.19v1.337c0 .104.085.19.19.19h1.331a.19.19 0 0 0 .19-.19v-1.338a.19.19 0 0 0-.19-.189" fill="#fff"/><title>Fill-8</title><path d="M94.958 171.8h-1.332a.19.19 0 0 0-.19.19l.001 1.338a.19.19 0 0 0 .19.189h1.33a.19.19 0 0 0 .19-.19v-1.337a.19.19 0 0 0-.189-.19" fill="#fff"/><title>Fill-10</title><path d="M97.527 171.8h-1.332a.19.19 0 0 0-.19.19v1.338c0 .103.086.189.19.189h1.332a.19.19 0 0 0 .19-.19v-1.337a.19.19 0 0 0-.19-.19" fill="#fff"/><title>Combined-Shape</title><path d="M92.39 171.8a.19.19 0 0 1 .189.19v1.338a.19.19 0 0 1-.19.189h-1.331a.19.19 0 0 1-.19-.19v-1.337a.19.19 0 0 1 .19-.19zm-1.142 1.334h.951v-.951h-.951z" fill="#fff"/><g><title>Combined-Shape</title><path d="M94.958 169.233a.19.19 0 0 1 .19.19v1.337a.19.19 0 0 1-.19.19h-1.331a.19.19 0 0 1-.19-.19v-1.338a.19.19 0 0 1 .19-.189zm-1.142 1.334h.952v-.952h-.952z" fill="#fff"/></g><g><title>Combined-Shape</title><path d="M97.527 169.233a.19.19 0 0 1 .19.19v1.337a.19.19 0 0 1-.19.19h-1.332a.19.19 0 0 1-.19-.19v-1.338a.19.19 0 0 1 .19-.189zm-1.142 1.334h.952v-.952h-.952z" fill="#fff"/></g></g><path fill="#e1f6fe" d="M315.025 17.5h311.409v268.026H315.025z"/><g fill="none"><path fill="#eaedef" d="M335.025 71.5h157.1v54h-157.1z"/><path clip-path="url(#b)" stroke="#dfdfdf" stroke-width="2" stroke-linecap="round" stroke-linejoin="round" d="M335.025 71.5h157.1v54h-157.1z"/><text transform="translate(376.025 84.5)" fill="#212121"><tspan y="11" x="0" font-weight="400" font-size="12" font-family="Roboto">tf.Hub Universal</tspan> <tspan y="25" x="0" font-weight="400" font-size="12" font-family="Roboto">Sentence Encoder</tspan></text><title>layer1</title><title>g4550</title><title>path4508</title><path d="M361.183 92.484v2.674l4.63 2.674v-2.674zm-9.263 2.674v2.674l2.316 1.336v-2.673zm6.947 1.337l-2.316 1.337v8.021l2.316 1.337v-5.348l2.316 1.337v-2.674l-2.316-1.337z" fill="#e55b2d"/><title>path4491</title><path d="M361.183 92.484l-6.947 4.01v2.674l4.63-2.673v2.673l2.317-1.336zm6.947 1.337l-2.316 1.337v2.674l2.316-1.337zm-4.632 5.347l-2.315 1.337v2.674l2.315-1.337zm-2.315 4.011l-2.316-1.337v5.348l2.316-1.337z" fill="#ed8e24"/><title>path4506</title><path d="M361.183 89.81l-9.263 5.348 2.316 1.337 6.947-4.011 4.63 2.674 2.317-1.337zm0 8.022l-2.316 1.336 2.316 1.337 2.315-1.337z" fill="#f8bf3c"/></g><g fill="none"><path fill="#fff" d="M459.525 170.75h136v87h-136z"/><path clip-path="url(#c)" stroke="#dfdfdf" stroke-width="2" stroke-linecap="round" stroke-linejoin="round" d="M459.525 170.75h136v87h-136z"/></g><path fill="#dfdfdf" d="M475.525 218.75h104v1h-104z"/><text y="224.75" x="503.525" fill="#757575" transform="translate(0 6)"><tspan font-size="10" font-weight="400" x="503.525" y="233.75" font-family="Roboto">App Engine</tspan></text><text transform="translate(475.525 189.75)" fill="#212121"><tspan font-size="12" font-weight="400" x="22.097" y="11" font-family="Roboto">Search app</tspan></text><g fill="none"><title>App Engine</title><title>Fill-1</title><path d="M495.32 236.83l-4.116-7.16c-.33-.572-.929-.92-1.544-.92h-8.235c-.66 0-1.235.387-1.544.92l-4.117 7.145a1.796 1.796 0 0 0 0 1.79l4.117 7.192c.33.572.928.953 1.544.953h8.234c.66 0 1.236-.416 1.544-.949l4.118-7.16a1.836 1.836 0 0 0 0-1.811" fill="#4285f4"/><title>Fill-4</title><path d="M491.375 237.434l-.108-.033-5.462-5.461-1.12 1.639.939.94-2.39.87-.934 2.376-.917-.917-1.651 1.45 8.451 8.452h1.476c.66 0 1.236-.416 1.545-.949l3.117-5.421z" fill="#000" fill-opacity=".07"/><title>Fill-6</title><path d="M485.542 240.487a2.737 2.737 0 1 1 0-5.473 2.737 2.737 0 0 1 0 5.473m0-6.343a3.607 3.607 0 1 0 0 7.213 3.607 3.607 0 0 0 0-7.213" fill="#fff"/><title>Fill-8</title><path d="M491.2 237.323l-1.504-.472a4.25 4.25 0 0 1 .049 1.534h1.455c.134-.04.224-.123.224-.246v-.57c0-.123-.09-.208-.224-.246" fill="#fff"/><title>Fill-10</title><path d="M485.541 233.5c.302 0 .597.033.881.092l-.54-1.498c-.038-.134-.122-.224-.246-.224h-.225c-.124 0-.21.09-.247.224l-.468 1.491a4.27 4.27 0 0 1 .845-.084" fill="#fff"/><title>Fill-12</title><path d="M481.293 237.75c0-.309.033-.61.096-.9l-1.504.473c-.135.037-.224.123-.224.247v.569c0 .123.09.207.224.246h1.455a4.26 4.26 0 0 1-.048-.634" fill="#fff"/><g><title>Fill-14</title><path d="M486.126 238.334a.82.82 0 0 1-.584.242.825.825 0 1 1 .584-.242m.704-1.76l-.341.34a1.29 1.29 0 0 0-.919-.38c-.347 0-.674.135-.919.38a1.302 1.302 0 0 0 0 1.838l-.341.34c.323.324.768.524 1.26.524.983 0 1.783-.8 1.783-1.783 0-.492-.2-.937-.523-1.26" fill="#fff"/></g></g><text transform="translate(225.15 120.5)" fill="#757575"><tspan y="9" x="0" font-weight="400" font-size="10" font-family="Roboto">Similar item IDs</tspan></text><text transform="translate(225.65 164.25)" fill="#757575"><tspan y="9" x="0" font-weight="400" font-size="10" font-family="Roboto">Wikipedia titles</tspan></text><text transform="translate(454.775 286.75)" fill="#757575"><tspan y="9" x="17.687" font-weight="400" font-size="10" font-family="Roboto">Input</tspan> <tspan y="21" x=".45" font-weight="400" font-size="10" font-family="Roboto">search query</tspan></text><text transform="translate(545.375 286.75)" fill="#757575"><tspan y="9" x=".148" font-weight="400" font-size="10" font-family="Roboto">Search</tspan> <tspan y="21" x=".446" font-weight="400" font-size="10" font-family="Roboto">results</tspan></text><text transform="translate(647.6 120.5)" fill="#757575"><tspan y="9" x="0" font-weight="400" font-size="10" font-family="Roboto">Similar item IDs</tspan></text><text transform="translate(663.725 164.25)" fill="#757575"><tspan y="9" x="0" font-weight="400" font-size="10" font-family="Roboto">Search query</tspan></text><g fill="none"><path fill="#fff" d="M737.725 104.375h136v87h-136z"/><path clip-path="url(#d)" stroke="#dfdfdf" stroke-width="2" stroke-linecap="round" stroke-linejoin="round" d="M851.725 104.375h136v87h-136z" transform="translate(-114)"/></g><path fill="#dfdfdf" d="M763.725 152.375h104v1h-104z"/><text x="899.725" y="160.375" fill="#757575" transform="translate(-110)"><tspan font-size="10" font-weight="400" x="899.725" y="169.375" font-family="Roboto">Cloud</tspan> <tspan font-size="10" font-weight="400" x="899.725" y="180.375" font-family="Roboto">Memorystore</tspan></text><text transform="translate(753.725 123.375)" fill="#212121"><tspan font-size="12" font-weight="400" x="18.953" y="11" font-family="Roboto">Query cache</tspan></text><g fill="none"><path d="M783.52 170.455l-4.116-7.16a1.809 1.809 0 0 0-1.544-.92h-8.235c-.641.01-1.229.36-1.544.92l-4.117 7.145a1.796 1.796 0 0 0 0 1.79l4.117 7.192c.312.567.898.928 1.544.953h8.234a1.836 1.836 0 0 0 1.544-.949l4.117-7.16a1.836 1.836 0 0 0 0-1.811z" fill="#4285f4"/><path d="M782.79 173.536l-4.978-4.978h-.313l-.94-.94-6.886 1.722.782.783-.782.782.782.783-.782.783.939.939-.94.626 6.34 6.339h1.847a1.836 1.836 0 0 0 1.544-.949z" fill="#4b7ddc"/><path fill="#fff" d="M769.673 168.558h1.409v.783h-1.409zm0 1.565h1.409v.783h-1.409zm0 1.565h1.409v.783h-1.409zm0 1.565h1.409v.783h-1.409zm6.73-4.695h1.409v.783h-1.409zm0 1.565h1.409v.783h-1.409zm0 1.565h1.409v.783h-1.409zm0 1.565h1.409v.783h-1.409z"/><path d="M770.925 167.618v7.357h5.635v-7.357zm2.348 6.261v-2.191h-1.252l2.19-2.974v2.191h1.253z" fill="#fff"/></g><g fill="none"><path fill="#fff" d="M481.625 318h91.5v54h-91.5z"/><path clip-path="url(#e)" stroke="#dfdfdf" stroke-width="2" stroke-linecap="round" stroke-linejoin="round" d="M481.625 318h91.5v54h-91.5z"/><text transform="translate(522.625 338)" fill="#212121"><tspan y="11" x="0" font-weight="400" font-size="12" font-family="Roboto">Client</tspan></text><circle r="8" cy="345" cx="506.625" fill="#616161"/></g><path d="M516.025 266.65v51.1a.5.5 0 1 0 1 0v-51.1a.5.5 0 0 0-1 0zm0-8v8h1v-8zm-3.146 4.354l4-4h-.708l4 4 .708-.708-4-4-.354-.353-.354.353-4 4zm24.146-4.754v50.6a.5.5 0 1 0 1 0v-50.6a.5.5 0 0 0-1 0zm1 58.6v-8h-1v8zm3.146-4.354l-4 4h.708l-4-4-.708.708 4 4 .354.353.354-.353 4-4zM213.175 137.5h101.1a.5.5 0 0 0 0-1h-101.1a.5.5 0 0 0 0 1zm-8 0h8v-1h-8zm4.354 3.146l-4-4v.708l4-4-.708-.708-4 4-.353.354.353.354 4 4zm-5.254 17.104h102.1a.5.5 0 0 0 0-1h-102.1a.5.5 0 0 0 0 1zm110.1-1h-8v1h8zm-4.354-3.146l4 4v-.708l-4 4 .708.708 4-4 .353-.354-.353-.354-4-4zM635.625 137.5h101.1a.5.5 0 0 0 0-1h-101.1a.5.5 0 0 0 0 1zm-8 0h8v-1h-8zm4.354 3.146l-4-4v.708l4-4-.708-.708-4 4-.353.354.353.354 4 4zm-5.254 17.104h102.1a.5.5 0 0 0 0-1h-102.1a.5.5 0 0 0 0 1zm110.1-1h-8v1h8zm-4.354-3.146l4 4v-.708l-4 4 .708.708 4-4 .353-.354-.353-.354-4-4zM449.725 215.5h-4c-.3 0-.5-.2-.5-.5s.2-.5.5-.5h4c.3 0 .5.2.5.5s-.3.5-.5.5zm-8 0h-4c-.3 0-.5-.2-.5-.5s.2-.5.5-.5h4c.3 0 .5.2.5.5s-.3.5-.5.5zm-8 0h-4c-.3 0-.5-.2-.5-.5s.2-.5.5-.5h4c.3 0 .5.2.5.5s-.3.5-.5.5zm-8 0h-4c-.3 0-.5-.2-.5-.5s.2-.5.5-.5h4c.3 0 .5.2.5.5s-.3.5-.5.5zm-8 0h-3c-.3 0-.5-.2-.5-.5v-1c0-.3.2-.5.5-.5s.5.2.5.5v.5h2.5c.3 0 .5.2.5.5s-.3.5-.5.5zm-3-5c-.3 0-.5-.2-.5-.5v-4c0-.3.2-.5.5-.5s.5.2.5.5v4c0 .3-.3.5-.5.5zm0-8c-.3 0-.5-.2-.5-.5v-4c0-.3.2-.5.5-.5s.5.2.5.5v4c0 .3-.3.5-.5.5zm0-8c-.3 0-.5-.2-.5-.5v-4c0-.3.2-.5.5-.5s.5.2.5.5v4c0 .3-.3.5-.5.5zm-.1-8c-.3 0-.5-.2-.5-.5v-4c0-.3.2-.5.5-.5s.5.2.5.5v4c0 .3-.2.5-.5.5zm0-8c-.3 0-.5-.2-.5-.5v-4c0-.3.2-.5.5-.5s.5.2.5.5v4c0 .3-.2.5-.5.5zm0-8c-.3 0-.5-.2-.5-.5v-4c0-.3.2-.5.5-.5s.5.2.5.5v4c0 .3-.2.5-.5.5zm0-8c-.3 0-.5-.2-.5-.5v-4c0-.3.2-.5.5-.5s.5.2.5.5v4c0 .3-.2.5-.5.5zm0-8c-.3 0-.5-.2-.5-.5v-4c0-.3.2-.5.5-.5s.5.2.5.5v4c0 .3-.3.5-.5.5zm-.1-8c-.3 0-.5-.2-.5-.5v-4c0-.3.3-.5.5-.5.3 0 .5.2.5.5v4c.1.3-.2.5-.5.5.1 0 .1 0 0 0zm0-8c-.2 0-.5-.2-.5-.5v-4c0-.3.2-.5.5-.5s.5.2.5.5v4c0 .3-.2.5-.5.5zm0-8c-.3 0-.5-.2-.5-.5v-4c0-.3.2-.5.5-.5s.5.2.5.5v4c0 .3-.2.5-.5.5zm40.6 88.9l-.7-.8 3.2-3.1h-6.8v-1h6.8l-3.2-3.1.7-.8 4.4 4.4z" fill="#5086ec"/></svg>