<svg xmlns="http://www.w3.org/2000/svg" viewBox="0 0 736 768" width="736" height="768"><defs><clipPath id="a"><path d="M45.3 20h136v87h-136z"/></clipPath><clipPath id="b"><path d="M45.3 127h136v87h-136z"/></clipPath><clipPath id="c"><path d="M45.3 501.5h136v87h-136z"/></clipPath><clipPath id="d"><path d="M252.3 127h136v87h-136z"/></clipPath><clipPath id="e"><path d="M428.3 308h136v87h-136z"/></clipPath><clipPath id="f"><path d="M252.3 308h136v87h-136z"/></clipPath><clipPath id="g"><path d="M312.05 468.25h157.1v54h-157.1z"/></clipPath><clipPath id="h"><path d="M436.4 547.25h136v87h-136z"/></clipPath><clipPath id="i"><path d="M34.75 234h157.1v54H34.75z"/></clipPath><clipPath id="j"><path d="M458.65 695h91.5v54h-91.5z"/></clipPath></defs><g fill="none"><title>Diagram 1</title><path fill="#fff" d="M0 0h736v768H0z"/><title>BigQuery</title><path fill="#fff" d="M45.3 20h136v87h-136z"/><path clip-path="url(#a)" stroke="#dfdfdf" stroke-width="2" stroke-linecap="round" stroke-linejoin="round" d="M45.3 20h136v87h-136z"/><path fill="#dfdfdf" d="M61.3 68h104v1h-104z"/><text transform="translate(89.3 81)" fill="#757575"><tspan font-size="10" font-weight="400" x="0" y="9" font-family="Roboto">BigQuery</tspan></text><text transform="translate(61.3 39)" fill="#212121"><tspan font-size="12" font-weight="400" x="11.485" y="11" font-family="Roboto">Wikipedia titles</tspan></text><title>BigQuery</title><title>Fill-1</title><path d="M81.096 86.08l-4.117-7.16c-.33-.572-.929-.92-1.544-.92H67.2c-.66 0-1.236.387-1.544.92l-4.117 7.145a1.796 1.796 0 0 0 0 1.79l4.117 7.192c.33.572.928.953 1.544.953h8.234c.66 0 1.236-.416 1.544-.949l4.118-7.16a1.836 1.836 0 0 0 0-1.811" fill="#4285f4"/><title>Fill-4</title><path d="M76.979 95.051l2.744-4.772-5.804-5.803-2.602-.696-2.337.868L68.077 87l.726 2.618L75.185 96h.25c.66 0 1.235-.416 1.544-.949" fill="#000" fill-opacity=".07"/><title>Fill-6</title><path d="M71.317 89.754a2.754 2.754 0 1 1 0-5.508 2.754 2.754 0 0 1 0 5.508m0-6.385a3.63 3.63 0 1 0 0 7.26 3.63 3.63 0 0 0 0-7.26" fill="#fff"/><title>Fill-8</title><path d="M69.594 86.86v1.128a2 2 0 0 0 .686.7V86.86z" fill="#fff"/><title>Fill-10</title><path d="M70.953 85.909v3.038c.117.021.236.034.359.034.112 0 .22-.012.327-.03V85.91z" fill="#fff"/><title>Fill-12</title><path d="M72.376 87.329v1.34a2 2 0 0 0 .686-.736v-.604z" fill="#fff"/><title>Fill-14</title><path d="M73.93 89.236l-.376.377a.17.17 0 0 0 0 .24l1.426 1.426a.17.17 0 0 0 .24 0l.377-.376a.17.17 0 0 0 0-.24l-1.427-1.427a.17.17 0 0 0-.24 0" fill="#fff"/><title>Cloud Dataflow</title><path fill="#fff" d="M45.3 127h136v87h-136z"/><path clip-path="url(#b)" stroke="#dfdfdf" stroke-width="2" stroke-linecap="round" stroke-linejoin="round" d="M45.3 127h136v87h-136z"/><path fill="#dfdfdf" d="M61.3 175h104v1h-104z"/><text transform="translate(89.3 188)" fill="#757575"><tspan font-size="10" font-weight="400" x="0" y="9" font-family="Roboto">Cloud Dataflow</tspan></text><text transform="translate(60.3 146)" fill="#212121"><tspan font-size="12" font-weight="400" x=".391" y="11" font-family="Roboto">Extract embeddings</tspan></text><title>Cloud Dataflow</title><title>Fill-1</title><path d="M81.096 193.08l-4.117-7.16c-.33-.572-.929-.92-1.544-.92H67.2c-.66 0-1.236.387-1.544.92l-4.117 7.145a1.796 1.796 0 0 0 0 1.79l4.117 7.192c.33.572.928.953 1.544.953h8.234c.66 0 1.236-.416 1.544-.949l4.118-7.16a1.836 1.836 0 0 0 0-1.811" fill="#4285f4"/><title>Fill-4</title><path d="M73.88 189.562l-2.543.597-2.582-.597 1.418 1.417-2.291 2.113.606.606-.563.722.706.707-.75.866 2.16 2.159-1.286.325L73.278 203h2.156c.66 0 1.236-.416 1.544-.949l3.429-5.962z" fill="#000" fill-opacity=".07"/><title>Fill-6</title><path d="M74.316 193.464a.56.56 0 1 1 0 1.119.56.56 0 0 1 0-1.12" fill="#fff"/><title>Fill-8</title><path d="M68.319 193.464a.56.56 0 1 1 0 1.118.56.56 0 0 1 0-1.118" fill="#fff"/><title>Fill-10</title><path d="M71.317 192.624a.56.56 0 1 1 0 1.12.56.56 0 0 1 0-1.12" fill="#fff"/><title>Fill-12</title><path d="M71.317 194.303a.56.56 0 1 1 0 1.12.56.56 0 0 1 0-1.12" fill="#fff"/><title>Fill-14</title><path d="M72.16 190.554l1.72-.992-.833-.48h-.022l-1.708.986-1.707-.986h-.023l-.832.48 1.719.992-2.592 1.489v1.049h.884v-.562l2.126-1.243v.913h.85v-.913l2.123 1.243v.562h.888v-1.05z" fill="#fff"/><title>Fill-16</title><path d="M73.865 195.507l-2.122 1.242v-.902h-.851v.902l-2.126-1.242v-.562h-.884v1.048l2.594 1.49-1.72.994.83.48h.024l1.707-.986 1.708.986h.022l.832-.48-1.72-.994 2.594-1.49v-1.048h-.888z" fill="#fff"/><title>Cloud Datastore</title><path fill="#fff" d="M45.3 501.5h136v87h-136z"/><path clip-path="url(#c)" stroke="#dfdfdf" stroke-width="2" stroke-linecap="round" stroke-linejoin="round" d="M45.3 501.5h136v87h-136z"/><path fill="#dfdfdf" d="M61.3 549.5h104v1h-104z"/><text transform="translate(89.3 562.5)" fill="#757575"><tspan font-size="10" font-weight="400" x="0" y="9" font-family="Roboto">Cloud Datastore</tspan></text><text transform="translate(61.3 513.5)" fill="#212121"><tspan font-size="12" font-weight="400" x="24.561" y="11" font-family="Roboto">Titles with</tspan> <tspan font-size="12" font-weight="400" x="25.63" y="25" font-family="Roboto">identifiers</tspan></text><title>Cloud Datastore</title><title>Fill-1</title><path d="M81.096 567.58l-4.117-7.16c-.33-.572-.929-.92-1.544-.92H67.2c-.66 0-1.236.387-1.544.92l-4.117 7.145a1.796 1.796 0 0 0 0 1.79l4.117 7.192c.33.572.928.953 1.544.953h8.234c.66 0 1.236-.416 1.544-.949l4.118-7.16a1.836 1.836 0 0 0 0-1.811" fill="#4285f4"/><title>Fill-4</title><path d="M74.685 566.418l-1.49.119.007.965-1.093-1.093-1.444.164-.003.955-1.112-1.112-1.601 1.605.995.994-.966.036-.022 1.543 6.906 6.906h.572c.66 0 1.236-.416 1.545-.949l2.862-4.977z" fill="#000" fill-opacity=".07"/><title>Fill-6</title><path d="M69.414 566.358h-1.331a.19.19 0 0 0-.19.19v1.337c0 .104.085.19.19.19h1.331a.19.19 0 0 0 .19-.19v-1.338a.19.19 0 0 0-.19-.189" fill="#fff"/><title>Fill-8</title><path d="M71.983 568.926h-1.332a.19.19 0 0 0-.19.189l.001 1.338a.19.19 0 0 0 .19.189h1.33a.19.19 0 0 0 .19-.19v-1.337a.19.19 0 0 0-.189-.19" fill="#fff"/><title>Fill-10</title><path d="M74.552 568.926H73.22a.19.19 0 0 0-.19.189v1.338c0 .103.086.189.19.189h1.332a.19.19 0 0 0 .19-.19v-1.337a.19.19 0 0 0-.19-.19" fill="#fff"/><title>Combined-Shape</title><path d="M69.414 568.926a.19.19 0 0 1 .19.189v1.338a.19.19 0 0 1-.19.189h-1.331a.19.19 0 0 1-.19-.19v-1.337a.19.19 0 0 1 .19-.19zm-1.141 1.333h.951v-.951h-.951z" fill="#fff"/><title>Combined-Shape</title><path d="M71.983 566.358a.19.19 0 0 1 .19.19v1.337a.19.19 0 0 1-.19.19h-1.331a.19.19 0 0 1-.19-.19v-1.338a.19.19 0 0 1 .19-.189zm-1.142 1.334h.952v-.952h-.952z" fill="#fff"/><title>Combined-Shape</title><path d="M74.552 566.358a.19.19 0 0 1 .19.19v1.337a.19.19 0 0 1-.19.19H73.22a.19.19 0 0 1-.19-.19v-1.338a.19.19 0 0 1 .19-.189zm-1.142 1.334h.952v-.952h-.952z" fill="#fff"/><title>Cloud Storage</title><path fill="#fff" d="M252.3 127h136v87h-136z"/><path clip-path="url(#d)" stroke="#dfdfdf" stroke-width="2" stroke-linecap="round" stroke-linejoin="round" d="M252.3 127h136v87h-136z"/><path fill="#dfdfdf" d="M268.3 175h104v1h-104z"/><text transform="translate(296.3 188)" fill="#757575"><tspan font-size="10" font-weight="400" x="0" y="9" font-family="Roboto">Cloud Storage</tspan></text><text transform="translate(268.3 146)" fill="#212121"><tspan font-size="12" font-weight="400" x="9.35" y="11" font-family="Roboto">Embedding files</tspan></text><title>Cloud Storage</title><title>Fill-1</title><path d="M288.096 193.08l-4.117-7.16c-.33-.572-.929-.92-1.544-.92H274.2c-.66 0-1.236.387-1.544.92l-4.117 7.145a1.796 1.796 0 0 0 0 1.79l4.117 7.192c.33.572.928.953 1.544.953h8.234c.66 0 1.236-.416 1.544-.949l4.118-7.16a1.836 1.836 0 0 0 0-1.811" fill="#4285f4"/><title>Fill-4</title><path d="M281.68 191.895l-5.662.52-1.097 1.094.933.933-.923 1.64 6.918 6.918h.585c.66 0 1.236-.416 1.544-.949l2.87-4.99z" fill="#000" fill-opacity=".07"/><title>Fill-6</title><path d="M280.553 193.1a.389.389 0 0 1 0-.777.388.388 0 1 1 0 .776m1.004-1.248h-6.485a.19.19 0 0 0-.19.19v1.34c0 .105.085.19.19.19h6.485a.19.19 0 0 0 .19-.19v-1.34a.19.19 0 0 0-.19-.19" fill="#fff"/><g><title>Fill-8</title><path d="M280.553 195.676a.387.387 0 1 1-.001-.776.387.387 0 0 1 0 .776m1.005-1.248h-6.485a.19.19 0 0 0-.19.19v1.341c0 .104.085.19.19.19h6.485a.19.19 0 0 0 .19-.19v-1.34a.19.19 0 0 0-.19-.19" fill="#fff"/></g><g><title>Cloud Storage</title><path fill="#fff" d="M428.3 308h136v87h-136z"/><path clip-path="url(#e)" stroke="#dfdfdf" stroke-width="2" stroke-linecap="round" stroke-linejoin="round" d="M428.3 308h136v87h-136z"/><path fill="#dfdfdf" d="M444.3 356h104v1h-104z"/><text transform="translate(472.3 369)" fill="#757575"><tspan font-size="10" font-weight="400" x="0" y="9" font-family="Roboto">Cloud Storage</tspan></text><text transform="translate(444.3 327)" fill="#212121"><tspan font-size="12" font-weight="400" x="20.002" y="11" font-family="Roboto">Saved index</tspan></text><title>Cloud Storage</title><title>Fill-1</title><path d="M464.096 374.08l-4.117-7.16c-.33-.572-.929-.92-1.544-.92H450.2c-.66 0-1.235.387-1.544.92l-4.117 7.145a1.796 1.796 0 0 0 0 1.79l4.117 7.192c.33.572.928.953 1.544.953h8.234c.66 0 1.236-.416 1.544-.949l4.118-7.16a1.836 1.836 0 0 0 0-1.811" fill="#4285f4"/><title>Fill-4</title><path d="M457.68 372.895l-5.662.52-1.097 1.094.933.933-.923 1.64 6.918 6.918h.585c.66 0 1.236-.416 1.544-.949l2.87-4.99z" fill="#000" fill-opacity=".07"/><title>Fill-6</title><path d="M456.553 374.1a.389.389 0 0 1 0-.777.388.388 0 1 1 0 .776m1.004-1.248h-6.485a.19.19 0 0 0-.19.19v1.34c0 .105.085.19.19.19h6.485a.19.19 0 0 0 .19-.19v-1.34a.19.19 0 0 0-.19-.19" fill="#fff"/><g><title>Fill-8</title><path d="M456.553 376.676a.387.387 0 1 1-.001-.776.387.387 0 0 1 0 .776m1.005-1.248h-6.485a.19.19 0 0 0-.19.19v1.341c0 .104.085.19.19.19h6.485a.19.19 0 0 0 .19-.19v-1.34a.19.19 0 0 0-.19-.19" fill="#fff"/></g></g><g><title>Cloud Machine Learning</title><path fill="#fff" d="M252.3 308h136v87h-136z"/><path clip-path="url(#f)" stroke="#dfdfdf" stroke-width="2" stroke-linecap="round" stroke-linejoin="round" d="M252.3 308h136v87h-136z"/><path fill="#dfdfdf" d="M268.3 356h104v1h-104z"/><text transform="translate(296.3 363.5)" fill="#757575"><tspan font-size="10" font-weight="400" x="0" y="9" font-family="Roboto">Cloud Machine</tspan> <tspan font-size="10" font-weight="400" x="0" y="20" font-family="Roboto">Learning</tspan></text><text transform="translate(268.3 327)" fill="#212121"><tspan font-size="12" font-weight="400" x="12.944" y="11" font-family="Roboto">Build the index</tspan></text><title>Cloud Machine Learning</title><title>Fill-1</title><path d="M288.096 374.08l-4.117-7.16c-.33-.572-.929-.92-1.544-.92H274.2c-.66 0-1.236.387-1.544.92l-4.117 7.145a1.796 1.796 0 0 0 0 1.79l4.117 7.192c.33.572.928.953 1.544.953h8.234c.66 0 1.236-.416 1.544-.949l4.118-7.16a1.836 1.836 0 0 0 0-1.811" fill="#4285f4"/><title>Fill-4</title><path d="M280.85 370.46l-1.9.947-.946-.946-3.309 1.878.727.727-1.816 2.717 1.105 1.105 1.073 2.651 4.461 4.461h2.19c.66 0 1.235-.416 1.543-.949l3.455-6.007z" fill="#000" fill-opacity=".07"/><title>Fill-7</title><path d="M280.81 376.565l.458-.782h1.76l.455-.783-1.18-2.035h-1.837l-.531-.939h-.522v-.626h.887l.531.94h1.108l-1.089-1.88h-2.22v2.662h.943l.365.626h-1.308V375h1.19l.542-.94h1.459l.362.627h-1.46l-.542.94h-1.55v2.347h1.955l-.362.626h-1.594v.94h2.22l1.816-3.131h-1.039l-.457.782h-1.757v-.626z" fill="#fff"/><g><title>Fill-9</title><path d="M275.824 376.565l-.457-.782h-1.76l-.455-.783 1.18-2.035h1.837l.531-.939h.522v-.626h-.887l-.531.94h-1.109l1.09-1.88h2.22v2.662h-.943l-.365.626h1.307V375h-1.189l-.542-.94h-1.46l-.36.627h1.459l.542.94h1.55v2.347h-1.955l.362.626h1.593v.94h-2.22l-1.815-3.131h1.038l.458.782h1.757v-.626z" fill="#fff"/></g></g><g transform="matrix(.7474 0 0 1 73.774 0)"><title>zone external - blue</title><path fill="#e1f6fe" d="M292.05 435.25h424.7v219.5h-424.7z"/></g><g><path fill="#eaedef" d="M312.05 468.25h157.1v54h-157.1z"/><path clip-path="url(#g)" stroke="#dfdfdf" stroke-width="2" stroke-linecap="round" stroke-linejoin="round" d="M312.05 468.25h157.1v54h-157.1z"/><text transform="translate(353.05 481.25)" fill="#212121"><tspan y="11" x="0" font-weight="400" font-size="12" font-family="Roboto">tf.Hub Universal</tspan> <tspan y="25" x="0" font-weight="400" font-size="12" font-family="Roboto">Sentence Encoder</tspan></text></g><g><title>layer1</title><title>g4550</title><title>path4508</title><path d="M338.208 489.234v2.674l4.63 2.674v-2.674zm-9.263 2.674v2.674l2.316 1.336v-2.673zm6.947 1.337l-2.316 1.337v8.021l2.316 1.337v-5.348l2.316 1.337v-2.674l-2.316-1.337z" fill="#e55b2d"/><title>path4491</title><path d="M338.208 489.234l-6.947 4.01v2.674l4.63-2.673v2.673l2.317-1.336zm6.947 1.337l-2.316 1.337v2.674l2.316-1.337zm-4.632 5.347l-2.315 1.337v2.674l2.315-1.337zm-2.315 4.011l-2.316-1.337v5.348l2.316-1.337z" fill="#ed8e24"/><title>path4506</title><path d="M338.208 486.56l-9.263 5.348 2.316 1.337 6.947-4.011 4.63 2.674 2.317-1.337zm0 8.022l-2.316 1.336 2.316 1.337 2.315-1.337z" fill="#f8bf3c"/></g><g><title>App Engine</title><path fill="#fff" d="M436.4 547.25h136v87h-136z"/><path clip-path="url(#h)" stroke="#dfdfdf" stroke-width="2" stroke-linecap="round" stroke-linejoin="round" d="M436.4 547.25h136v87h-136z"/><path fill="#dfdfdf" d="M452.4 595.25h104v1h-104z"/><text transform="translate(480.4 608.25)" fill="#757575"><tspan font-size="10" font-weight="400" x="0" y="9" font-family="Roboto">App Engine</tspan></text><text transform="translate(452.4 566.25)" fill="#212121"><tspan font-size="12" font-weight="400" x="22.097" y="11" font-family="Roboto">Search app</tspan></text><title>App Engine</title><title>Fill-1</title><path d="M472.196 613.33l-4.117-7.16c-.33-.572-.929-.92-1.544-.92H458.3c-.66 0-1.236.387-1.544.92l-4.117 7.145a1.796 1.796 0 0 0 0 1.79l4.117 7.192c.33.572.928.953 1.544.953h8.234c.66 0 1.236-.416 1.544-.949l4.118-7.16a1.836 1.836 0 0 0 0-1.811" fill="#4285f4"/><title>Fill-4</title><path d="M468.25 613.934l-.108-.033-5.462-5.461-1.12 1.639.939.94-2.39.87-.934 2.376-.917-.917-1.651 1.45 8.451 8.452h1.476c.66 0 1.236-.416 1.545-.949l3.117-5.421z" fill="#000" fill-opacity=".07"/><title>Fill-6</title><path d="M462.417 616.987a2.737 2.737 0 1 1 0-5.473 2.737 2.737 0 0 1 0 5.473m0-6.343a3.607 3.607 0 1 0 0 7.213 3.607 3.607 0 0 0 0-7.213" fill="#fff"/><title>Fill-8</title><path d="M468.075 613.823l-1.504-.472a4.25 4.25 0 0 1 .049 1.534h1.455c.134-.04.224-.123.224-.246v-.57c0-.123-.09-.209-.224-.246" fill="#fff"/><title>Fill-10</title><path d="M462.416 610c.302 0 .597.033.881.092l-.54-1.498c-.038-.134-.122-.224-.246-.224h-.225c-.124 0-.21.09-.247.224l-.468 1.491a4.27 4.27 0 0 1 .845-.084" fill="#fff"/><title>Fill-12</title><path d="M458.168 614.25c0-.309.033-.61.096-.9l-1.504.473c-.135.038-.224.123-.224.247v.569c0 .123.09.207.224.246h1.455a4.26 4.26 0 0 1-.047-.634" fill="#fff"/><g><title>Fill-14</title><path d="M463.001 614.834a.82.82 0 0 1-.584.242.825.825 0 1 1 .584-.242m.704-1.76l-.341.34a1.29 1.29 0 0 0-.919-.38c-.347 0-.674.135-.919.38a1.302 1.302 0 0 0 0 1.838l-.341.34c.323.324.768.524 1.26.524.983 0 1.783-.8 1.783-1.783 0-.492-.2-.937-.523-1.26" fill="#fff"/></g></g><g><path fill="#eaedef" d="M34.75 234h157.1v54H34.75z"/><path clip-path="url(#i)" stroke="#dfdfdf" stroke-width="2" stroke-linecap="round" stroke-linejoin="round" d="M34.75 234h157.1v54H34.75z"/><text transform="translate(75.75 247)" fill="#212121"><tspan font-size="12" font-weight="400" x="0" y="11" font-family="Roboto">tf.Hub Universal</tspan> <tspan font-size="12" font-weight="400" x="0" y="25" font-family="Roboto">Sentence Encoder</tspan></text><title>layer1</title><title>g4550</title><title>path4508</title><path d="M60.908 254.984v2.674l4.63 2.674v-2.674zm-9.263 2.674v2.674l2.316 1.336v-2.673zm6.947 1.337l-2.316 1.337v8.021l2.316 1.337v-5.348l2.316 1.337v-2.674l-2.316-1.337z" fill="#e55b2d"/><title>path4491</title><path d="M60.908 254.984l-6.947 4.01v2.674l4.63-2.673v2.673l2.317-1.336zm6.947 1.337l-2.316 1.337v2.674l2.316-1.337zm-4.632 5.347l-2.315 1.337v2.674l2.315-1.337zm-2.315 4.011l-2.316-1.337v5.348l2.316-1.337z" fill="#ed8e24"/><title>path4506</title><path d="M60.908 252.31l-9.263 5.348 2.316 1.337 6.947-4.011 4.63 2.674 2.317-1.337zm0 8.022l-2.316 1.336 2.316 1.337 2.315-1.337z" fill="#f8bf3c"/></g><g><text transform="translate(202.175 518.25)" fill="#757575"><tspan font-size="10" font-weight="400" x="0" y="9" font-family="Roboto">Similar item IDs</tspan></text></g><g><text transform="translate(202.675 562)" fill="#757575"><tspan font-size="10" font-weight="400" x="0" y="9" font-family="Roboto">Wikipedia titles</tspan></text></g><g><text transform="translate(493.4 410.625)" fill="#757575"><tspan font-size="10" font-weight="400" x="0" y="9" font-family="Roboto">Download</tspan></text></g><g><text transform="translate(431.65 663.25)" fill="#757575"><tspan font-size="10" font-weight="400" x="17.687" y="9" font-family="Roboto">Input</tspan> <tspan font-size="10" font-weight="400" x=".45" y="21" font-family="Roboto">search query</tspan></text></g><g><text transform="translate(522.25 663.25)" fill="#757575"><tspan font-size="10" font-weight="400" x=".148" y="9" font-family="Roboto">Search</tspan> <tspan font-size="10" font-weight="400" x=".446" y="21" font-family="Roboto">results</tspan></text></g><g><circle cx="180.5" cy="127.5" r="10" fill="#ccc"/><text transform="translate(177.5 120.5)" fill="#000"><tspan font-size="12" font-weight="400" x="0" y="11" font-family="Roboto">1</tspan></text></g><g><circle cx="387" cy="308" r="10" fill="#ccc"/><text transform="translate(384 301)" fill="#000"><tspan font-size="12" font-weight="400" x="0" y="11" font-family="Roboto">2</tspan></text></g><g><circle cx="571.5" cy="548" r="10" fill="#ccc"/><text transform="translate(568.5 541)" fill="#000"><tspan font-size="12" font-weight="400" x="0" y="11" font-family="Roboto">3</tspan></text></g><g><path fill="#fff" d="M458.65 695h91.5v54h-91.5z"/><path clip-path="url(#j)" stroke="#dfdfdf" stroke-width="2" stroke-linecap="round" stroke-linejoin="round" d="M458.65 695h91.5v54h-91.5z"/><text transform="translate(499.65 715)" fill="#212121"><tspan font-size="12" font-weight="400" x="0" y="11" font-family="Roboto">Client</tspan></text><circle cx="483.65" cy="722" r="8" fill="#616161"/></g><g><path d="M513.9 634.75v50.6a.5.5 0 0 0 1 0v-50.6a.5.5 0 0 0-1 0zm1 58.6v-8h-1v8zm3.146-4.354l-4 4h.708l-4-4-.708.708 4 4 .354.353.354-.353 4-4z" fill="#5086ec"/></g><g><path d="M492.9 643.15v51.1a.5.5 0 0 0 1 0v-51.1a.5.5 0 0 0-1 0zm0-8v8h1v-8zm-3.146 4.354l4-4h-.708l4 4 .708-.708-4-4-.354-.353-.354.353-4 4z" fill="#5086ec"/></g><g><path d="M181.3 555.5h102.1a.5.5 0 0 0 0-1H181.3a.5.5 0 0 0 0 1zm110.1-1h-8v1h8zm-4.354-3.146l4 4v-.708l-4 4 .708.708 4-4 .353-.354-.353-.354-4-4z" fill="#5086ec"/></g><g><path d="M190.2 535.25h101.1a.5.5 0 0 0 0-1H190.2a.5.5 0 0 0 0 1zm-8 0h8v-1h-8zm4.354 3.146l-4-4v.708l4-4-.708-.708-4 4-.353.354.353.354 4 4z" fill="#5086ec"/></g><g><path d="M319.8 214v84.1a.5.5 0 0 0 1 0V214a.5.5 0 0 0-1 0zm1 92.1v-8h-1v8zm3.146-4.354l-4 4h.708l-4-4-.708.708 4 4 .354.353.354-.353 4-4z" fill="#5086ec"/></g><g><path d="M181.3 171h61.1a.5.5 0 0 0 0-1h-61.1a.5.5 0 0 0 0 1zm69.1-1h-8v1h8zm-4.354-3.146l4 4v-.708l-4 4 .708.708 4-4 .353-.354-.353-.354-4-4z" fill="#5086ec"/></g><g><path d="M112.8 107v10h1v-2.45h-1v2.55a.5.5 0 0 0 1 0v-2.55c0-.667-1-.667-1 0V117c0 .667 1 .667 1 0v-10a.5.5 0 0 0-1 0zm1 18.1v-8h-1v8zm3.146-4.354l-4 4h.708l-4-4-.708.708 4 4 .354.353.354-.353 4-4z" fill="#5086ec"/></g><g><path d="M45.3 170h-10l-16.058.25a.5.5 0 0 0-.492.5V545a.5.5 0 0 0 .5.5H35.4a.5.5 0 0 0 0-1H19.25l.5.5V170.75l-.492.5 16.05-.25H45.3a.5.5 0 0 0 0-1zm-1.9 374.5h-8v1h8zm-4.354-3.146l4 4v-.708l-4 4 .708.708 4-4 .353-.354-.353-.354-4-4z" fill="#5086ec"/></g><g><path d="M388.3 352h30.1a.5.5 0 0 0 0-1h-30.1a.5.5 0 0 0 0 1zm38.1-1h-8v1h8zm-4.354-3.146l4 4v-.708l-4 4 .708.708 4-4 .353-.354-.353-.354-4-4z" fill="#5086ec"/></g><g fill="#5086ec"><path d="M113.35 233.126c-.3 0-.5-.2-.5-.5v-4c0-.3.2-.5.5-.5s.5.2.5.5v4c0 .3-.3.5-.5.5zm0-8c-.3 0-.5-.2-.5-.5v-1.4c0-.3.2-.5.5-.5s.5.2.5.5v1.4c0 .3-.3.5-.5.5z"/><path d="M113.85 223.226h-1v-6.8l-3.2 3.2-.7-.7 4.4-4.4 4.3 4.4-.7.7-3.1-3.2z"/></g><g><path d="M485.45 536c-.3 0-.5-.2-.5-.5v-4c0-.3.2-.5.5-.5s.5.2.5.5v4c0 .3-.3.5-.5.5zm0-8c-.3 0-.5-.2-.5-.5v-4c0-.3.2-.5.5-.5s.5.2.5.5v4c0 .3-.3.5-.5.5zm0-8c-.3 0-.5-.2-.5-.5v-4c0-.3.2-.5.5-.5s.5.2.5.5v4c0 .3-.3.5-.5.5zm0-8c-.3 0-.5-.2-.5-.5v-4c0-.3.2-.5.5-.5s.5.2.5.5v4c0 .3-.3.5-.5.5zm0-8c-.3 0-.5-.2-.5-.5v-4c0-.3.2-.5.5-.5s.5.2.5.5v4c0 .3-.3.5-.5.5zm0-8c-.3 0-.5-.2-.5-.5v-4c0-.3.2-.5.5-.5s.5.2.5.5v4c0 .3-.3.5-.5.5zm0-8c-.3 0-.5-.2-.5-.5v-4c0-.3.2-.5.5-.5s.5.2.5.5v4c0 .3-.3.5-.5.5zm0-8c-.3 0-.5-.2-.5-.5v-4c0-.3.2-.5.5-.5s.5.2.5.5v4c0 .3-.3.5-.5.5zm0-8c-.3 0-.5-.2-.5-.5v-4c0-.3.2-.5.5-.5s.5.2.5.5v4c0 .3-.3.5-.5.5zm0-8c-.3 0-.5-.2-.5-.5v-4c0-.3.2-.5.5-.5s.5.2.5.5v4c0 .3-.3.5-.5.5zm0-8c-.3 0-.5-.2-.5-.5v-4c0-.3.2-.5.5-.5s.5.2.5.5v4c0 .3-.3.5-.5.5zm0-8c-.3 0-.5-.2-.5-.5v-4c0-.3.2-.5.5-.5s.5.2.5.5v4c0 .3-.3.5-.5.5zm0-8c-.3 0-.5-.2-.5-.5v-4c0-.3.2-.5.5-.5s.5.2.5.5v4c0 .3-.3.5-.5.5zm0-8c-.3 0-.5-.2-.5-.5v-4c0-.3.2-.5.5-.5s.5.2.5.5v4c0 .3-.3.5-.5.5zm0-8c-.3 0-.5-.2-.5-.5v-4c0-.3.2-.5.5-.5s.5.2.5.5v4c0 .3-.3.5-.5.5zm0-8c-.3 0-.5-.2-.5-.5v-4c0-.3.2-.5.5-.5s.5.2.5.5v4c0 .3-.3.5-.5.5zm0-8c-.3 0-.5-.2-.5-.5v-4c0-.3.2-.5.5-.5s.5.2.5.5v4c0 .3-.3.5-.5.5zm0-8c-.3 0-.5-.2-.5-.5v-4c0-.3.2-.5.5-.5s.5.2.5.5v4c0 .3-.3.5-.5.5zm0 146.6l-4.4-4.4.7-.7 3.2 3.1v-6.8h1v6.8l3.1-3.1.7.7z" fill="#5086ec"/></g><g><path d="M423.9 591.05h-4c-.3 0-.5-.2-.5-.5s.2-.5.5-.5h4c.3 0 .5.2.5.5s-.2.5-.5.5zm-8 0h-4c-.3 0-.5-.2-.5-.5s.2-.5.5-.5h4c.3 0 .5.2.5.5s-.2.5-.5.5zm-8 0h-4c-.3 0-.5-.2-.5-.5s.2-.5.5-.5h4c.3 0 .5.2.5.5s-.2.5-.5.5zm-8 0h-4c-.3 0-.5-.2-.5-.5s.2-.5.5-.5h4c.3 0 .5.2.5.5s-.2.5-.5.5zm-8 0h-.2c-.3 0-.5-.2-.5-.5v-3.8c0-.3.2-.5.5-.5s.5.2.5.5v3.3c.1.1.2.2.2.4 0 .3-.2.6-.5.6zm-.2-7.8c-.3 0-.5-.2-.5-.5v-4c0-.3.2-.5.5-.5s.5.2.5.5v4c0 .3-.2.5-.5.5zm0-8c-.3 0-.5-.2-.5-.5v-4c0-.3.2-.5.5-.5s.5.2.5.5v4c0 .3-.2.5-.5.5zm0-8c-.3 0-.5-.2-.5-.5v-4c0-.3.2-.5.5-.5s.5.2.5.5v4c0 .3-.2.5-.5.5zm0-8c-.3 0-.5-.2-.5-.5v-4c0-.3.2-.5.5-.5s.5.2.5.5v4c0 .3-.3.5-.5.5zm-.1-8c-.3 0-.5-.2-.5-.5v-4c0-.3.3-.5.5-.5.3 0 .5.2.5.5v4c0 .3-.2.5-.5.5zm0-8c-.3 0-.5-.2-.5-.5v-4c0-.3.2-.5.5-.5s.5.2.5.5v4c0 .3-.2.5-.5.5zm0-8c-.3 0-.5-.2-.5-.5v-4c-.1-.3.2-.5.4-.5.3 0 .5.2.5.5v4c.1.3-.2.5-.4.5zm-.1-8c-.3 0-.5-.2-.5-.5v-4c0-.3.2-.5.5-.5s.5.2.5.5v4c0 .3-.2.5-.5.5zm40.6 67.6l-.8-.7 3.2-3.1h-6.8v-1h6.8l-3.2-3.2.8-.7 4.3 4.3z" fill="#5086ec"/></g></g></svg>