<?xml version="1.0" encoding="UTF-8" standalone="no"?>
<!-- Created with Inkscape (http://www.inkscape.org/) -->

<svg
   xmlns:dc="http://purl.org/dc/elements/1.1/"
   xmlns:cc="http://creativecommons.org/ns#"
   xmlns:rdf="http://www.w3.org/1999/02/22-rdf-syntax-ns#"
   xmlns:svg="http://www.w3.org/2000/svg"
   xmlns="http://www.w3.org/2000/svg"
   xmlns:sodipodi="http://sodipodi.sourceforge.net/DTD/sodipodi-0.dtd"
   xmlns:inkscape="http://www.inkscape.org/namespaces/inkscape"
   width="395.54669"
   height="162.63528"
   viewBox="0 0 395.5467 162.63529"
   id="svg2"
   version="1.1"
   inkscape:version="0.91 r13725"
   sodipodi:docname="building-aliases.svg">
  <defs
     id="defs4">
    <clipPath
       clipPathUnits="userSpaceOnUse"
       id="clipPath4237">
      <path
         style="opacity:1;fill:none;fill-opacity:1;stroke:#ff00ff;stroke-width:1.03457475;stroke-linecap:round;stroke-linejoin:round;stroke-miterlimit:4;stroke-dasharray:none;stroke-opacity:1"
         d="m 468.01367,402.21484 -16.13867,1.91993 -41.11328,13.83398 -26.89844,14.2168 -26.1289,18.44336 -20.74805,17.67578 -29.97266,41.88281 -0.082,-0.002 0.4668,0.77148 -3.8418,6.53125 -19.21289,55.33203 -1.92187,11.52735 -2.20704,63.63281 1.05469,2.45898 13.83399,50.72071 8.06836,16.13672 -0.42774,0.83984 25.78906,34.51172 23.82227,26.1289 39.19336,29.97071 52.49219,19.01953 0.15039,-0.19141 76.08007,4.9961 64.93946,-15.36915 31.12304,-19.21289 28.81836,-22.28711 18.10938,-20.375 -0.0488,-0.375 19.21289,-27.66406 13.44727,-30.35742 11.14453,-36.11914 2.68945,-16.52148 0.76758,-53.79493 -12.67969,-53.41015 -3.45898,-8.07032 -39.57617,-59.55859 -5.38086,-7.68359 -47.41602,-37.09375 -0.23047,0.20508 -23.43945,-8.83789 -31.50781,-10.375 -11.14258,-1.91993 -24.20899,-1.53711 -43.41992,0 z"
         id="path4239"
         inkscape:connector-curvature="0" />
    </clipPath>
  </defs>
  <sodipodi:namedview
     id="base"
     pagecolor="#ffffff"
     bordercolor="#666666"
     borderopacity="1.0"
     inkscape:pageopacity="0.0"
     inkscape:pageshadow="2"
     inkscape:zoom="0.35355339"
     inkscape:cx="145.83287"
     inkscape:cy="37.878475"
     inkscape:document-units="px"
     inkscape:current-layer="layer1"
     showgrid="false"
     inkscape:window-width="1370"
     inkscape:window-height="855"
     inkscape:window-x="70"
     inkscape:window-y="0"
     inkscape:window-maximized="1"
     inkscape:snap-bbox="true"
     inkscape:bbox-paths="true"
     inkscape:bbox-nodes="true"
     inkscape:snap-bbox-edge-midpoints="true"
     inkscape:snap-bbox-midpoints="true"
     inkscape:object-paths="true"
     inkscape:snap-intersection-paths="true"
     inkscape:object-nodes="true"
     inkscape:snap-smooth-nodes="true"
     inkscape:snap-midpoints="true"
     showguides="true"
     inkscape:guide-bbox="true"
     inkscape:snap-grids="true"
     inkscape:snap-to-guides="true"
     inkscape:snap-global="true"
     fit-margin-left="5"
     fit-margin-top="5"
     fit-margin-bottom="5"
     fit-margin-right="5"
     units="px">
    <sodipodi:guide
       position="389.5467,56.483723"
       orientation="1,0"
       id="guide4223" />
  </sodipodi:namedview>
  <metadata
     id="metadata7">
    <rdf:RDF>
      <cc:Work
         rdf:about="">
        <dc:format>image/svg+xml</dc:format>
        <dc:type
           rdf:resource="http://purl.org/dc/dcmitype/StillImage" />
        <dc:title></dc:title>
      </cc:Work>
    </rdf:RDF>
  </metadata>
  <g
     inkscape:label="Layer 1"
     inkscape:groupmode="layer"
     id="layer1"
     transform="translate(-119.05322,-123.39596)">
    <path
       style="opacity:1;fill:#ff0000;fill-opacity:1;fill-rule:evenodd;stroke:#000000;stroke-width:2;stroke-linecap:round;stroke-linejoin:round;stroke-miterlimit:4;stroke-dasharray:none;stroke-opacity:1"
       d="m 125.05322,157.11826 43.5467,0 0,24.85852 -43.5467,0 z"
       id="rect4160"
       inkscape:connector-curvature="0"
       sodipodi:nodetypes="ccccc"
       inkscape:export-xdpi="71.897903"
       inkscape:export-ydpi="71.897903" />
    <path
       style="opacity:1;fill:#008000;fill-opacity:1;fill-rule:evenodd;stroke:#000000;stroke-width:2;stroke-linecap:round;stroke-linejoin:round;stroke-miterlimit:4;stroke-dasharray:none;stroke-opacity:1"
       d="m 185.05322,157.11826 79.5467,0 0,24.85852 -79.5467,0 z"
       id="rect4162"
       inkscape:connector-curvature="0"
       sodipodi:nodetypes="ccccc"
       inkscape:export-xdpi="71.897903"
       inkscape:export-ydpi="71.897903" />
    <path
       style="opacity:1;fill:#0000ff;fill-opacity:1;fill-rule:evenodd;stroke:#000000;stroke-width:2;stroke-linecap:round;stroke-linejoin:round;stroke-miterlimit:4;stroke-dasharray:none;stroke-opacity:1"
       d="m 281.05322,157.11826 99.5467,0 0,24.85852 -99.5467,0 z"
       id="rect4164"
       inkscape:connector-curvature="0"
       sodipodi:nodetypes="ccccc"
       inkscape:export-xdpi="71.897903"
       inkscape:export-ydpi="71.897903" />
    <rect
       style="opacity:1;fill:#008000;fill-opacity:1;fill-rule:evenodd;stroke:none;stroke-width:1.13829672;stroke-linecap:round;stroke-linejoin:round;stroke-miterlimit:4;stroke-dasharray:none;stroke-opacity:1"
       id="rect4170"
       width="83.5467"
       height="24.858521"
       x="125.05322"
       y="217.11826"
       inkscape:export-xdpi="71.897903"
       inkscape:export-ydpi="71.897903" />
    <rect
       y="217.11826"
       x="225.05322"
       height="24.858521"
       width="83.5467"
       id="rect4172"
       style="opacity:1;fill:#0000ff;fill-opacity:1;fill-rule:evenodd;stroke:none;stroke-width:1.13829672;stroke-linecap:round;stroke-linejoin:round;stroke-miterlimit:4;stroke-dasharray:none;stroke-opacity:1"
       inkscape:export-xdpi="71.897903"
       inkscape:export-ydpi="71.897903" />
    <rect
       style="opacity:1;fill:#ff6600;fill-opacity:1;fill-rule:evenodd;stroke:none;stroke-width:1.13829672;stroke-linecap:round;stroke-linejoin:round;stroke-miterlimit:4;stroke-dasharray:none;stroke-opacity:1"
       id="rect4174"
       width="83.5467"
       height="24.858521"
       x="325.05322"
       y="217.11826"
       inkscape:export-xdpi="71.897903"
       inkscape:export-ydpi="71.897903" />
    <rect
       y="217.11826"
       x="425.05322"
       height="24.858521"
       width="83.5467"
       id="rect4176"
       style="opacity:1;fill:#ff6600;fill-opacity:1;fill-rule:evenodd;stroke:none;stroke-width:1.13829672;stroke-linecap:round;stroke-linejoin:round;stroke-miterlimit:4;stroke-dasharray:none;stroke-opacity:1"
       inkscape:export-xdpi="71.897903"
       inkscape:export-ydpi="71.897903" />
    <path
       sodipodi:nodetypes="ccccc"
       inkscape:connector-curvature="0"
       id="path4185"
       d="m 125.05322,217.11826 43.5467,0 0,24.85852 -43.5467,0 z"
       style="opacity:1;fill:#ff0000;fill-opacity:1;fill-rule:evenodd;stroke:none;stroke-width:1.13829672;stroke-linecap:round;stroke-linejoin:round;stroke-miterlimit:4;stroke-dasharray:none;stroke-opacity:1"
       inkscape:export-xdpi="71.897903"
       inkscape:export-ydpi="71.897903" />
    <path
       style="opacity:1;fill:#008000;fill-opacity:1;fill-rule:evenodd;stroke:none;stroke-width:1.13829672;stroke-linecap:round;stroke-linejoin:round;stroke-miterlimit:4;stroke-dasharray:none;stroke-opacity:1"
       d="m 225.05322,217.11826 0,24.85742 40.68555,0 0,-24.85742 -40.68555,0 z"
       id="path4187"
       inkscape:connector-curvature="0"
       inkscape:export-xdpi="71.897903"
       inkscape:export-ydpi="71.897903" />
    <path
       style="fill:none;fill-rule:evenodd;stroke:#000000;stroke-width:1;stroke-linecap:butt;stroke-linejoin:miter;stroke-miterlimit:4;stroke-dasharray:3, 3;stroke-dashoffset:0;stroke-opacity:1"
       d="m 223.91437,157.11881 0,24.85797"
       id="path4196"
       inkscape:connector-curvature="0"
       sodipodi:nodetypes="cc"
       inkscape:export-xdpi="71.897903"
       inkscape:export-ydpi="71.897903" />
    <path
       inkscape:connector-curvature="0"
       id="path4205"
       d="m 322.70655,157.11881 0,24.85797"
       style="fill:none;fill-rule:evenodd;stroke:#000000;stroke-width:1;stroke-linecap:butt;stroke-linejoin:miter;stroke-miterlimit:4;stroke-dasharray:3, 3;stroke-dashoffset:0;stroke-opacity:1"
       sodipodi:nodetypes="cc"
       inkscape:export-xdpi="71.897903"
       inkscape:export-ydpi="71.897903" />
    <path
       inkscape:connector-curvature="0"
       id="path4207"
       d="m 325.05322,217.11826 0,24.85742 57.82422,0 0,-24.85742 -57.82422,0 z"
       style="opacity:1;fill:#0000ff;fill-opacity:1;fill-rule:evenodd;stroke:none;stroke-width:1.13829672;stroke-linecap:round;stroke-linejoin:round;stroke-miterlimit:4;stroke-dasharray:none;stroke-opacity:1"
       inkscape:export-xdpi="71.897903"
       inkscape:export-ydpi="71.897903" />
    <path
       style="opacity:1;fill:#ff6600;fill-opacity:1;fill-rule:evenodd;stroke:#000000;stroke-width:2;stroke-linecap:round;stroke-linejoin:round;stroke-miterlimit:4;stroke-dasharray:none;stroke-opacity:1"
       d="m 400.46941,157.11881 108.1305,0 0,24.85852 -108.1305,0 z"
       id="rect4166"
       inkscape:connector-curvature="0"
       sodipodi:nodetypes="ccccc"
       inkscape:export-xdpi="71.897903"
       inkscape:export-ydpi="71.897903" />
    <path
       style="fill:#ff6600;fill-rule:evenodd;stroke:#000000;stroke-width:1;stroke-linecap:butt;stroke-linejoin:miter;stroke-miterlimit:4;stroke-dasharray:3, 3;stroke-dashoffset:0;stroke-opacity:1"
       d="m 425.05322,157.11881 0,24.85797"
       id="path4216"
       inkscape:connector-curvature="0"
       sodipodi:nodetypes="cc"
       inkscape:export-xdpi="71.897903"
       inkscape:export-ydpi="71.897903" />
    <g
       id="g4306"
       inkscape:export-xdpi="71.897903"
       inkscape:export-ydpi="71.897903">
      <path
         sodipodi:nodetypes="cc"
         inkscape:connector-curvature="0"
         id="path4225"
         d="m 144.89632,188.11649 c -6.37426,6.74921 5.62434,16.49808 0.37495,21.74746"
         style="fill:none;fill-rule:evenodd;stroke:#000000;stroke-width:2;stroke-linecap:butt;stroke-linejoin:miter;stroke-miterlimit:4;stroke-dasharray:none;stroke-opacity:1" />
      <path
         sodipodi:nodetypes="cccc"
         inkscape:connector-curvature="0"
         id="path4242"
         d="m 149.24374,210.15756 -6.14134,-3.86216 -0.36779,7.39882 z"
         style="fill:#000000;fill-rule:evenodd;stroke:none;stroke-width:1px;stroke-linecap:butt;stroke-linejoin:miter;stroke-opacity:1" />
    </g>
    <g
       id="g4310"
       inkscape:export-xdpi="71.897903"
       inkscape:export-ydpi="71.897903">
      <path
         style="fill:none;fill-rule:evenodd;stroke:#000000;stroke-width:2;stroke-linecap:butt;stroke-linejoin:miter;stroke-miterlimit:4;stroke-dasharray:none;stroke-opacity:1"
         d="m 196.89632,188.11649 c -6.37426,6.74921 5.62434,16.49808 0.37495,21.74746"
         id="path4250"
         inkscape:connector-curvature="0"
         sodipodi:nodetypes="cc" />
      <path
         style="fill:#000000;fill-rule:evenodd;stroke:none;stroke-width:1px;stroke-linecap:butt;stroke-linejoin:miter;stroke-opacity:1"
         d="m 201.24374,210.15756 -6.14134,-3.86216 -0.36779,7.39882 z"
         id="path4252"
         inkscape:connector-curvature="0"
         sodipodi:nodetypes="cccc" />
    </g>
    <g
       id="g4314"
       inkscape:export-xdpi="71.897903"
       inkscape:export-ydpi="71.897903">
      <path
         sodipodi:nodetypes="cc"
         inkscape:connector-curvature="0"
         id="path4256"
         d="m 238.89632,188.11649 c -6.37426,6.74921 5.62434,16.49808 0.37495,21.74746"
         style="fill:none;fill-rule:evenodd;stroke:#000000;stroke-width:2;stroke-linecap:butt;stroke-linejoin:miter;stroke-miterlimit:4;stroke-dasharray:none;stroke-opacity:1" />
      <path
         sodipodi:nodetypes="cccc"
         inkscape:connector-curvature="0"
         id="path4258"
         d="m 243.24374,210.15756 -6.14134,-3.86216 -0.36779,7.39882 z"
         style="fill:#000000;fill-rule:evenodd;stroke:none;stroke-width:1px;stroke-linecap:butt;stroke-linejoin:miter;stroke-opacity:1" />
    </g>
    <g
       id="g4318"
       inkscape:export-xdpi="71.897903"
       inkscape:export-ydpi="71.897903">
      <path
         style="fill:none;fill-rule:evenodd;stroke:#000000;stroke-width:2;stroke-linecap:butt;stroke-linejoin:miter;stroke-miterlimit:4;stroke-dasharray:none;stroke-opacity:1"
         d="m 294.89632,188.11649 c -6.37426,6.74921 5.62434,16.49808 0.37495,21.74746"
         id="path4262"
         inkscape:connector-curvature="0"
         sodipodi:nodetypes="cc" />
      <path
         style="fill:#000000;fill-rule:evenodd;stroke:none;stroke-width:1px;stroke-linecap:butt;stroke-linejoin:miter;stroke-opacity:1"
         d="m 299.24374,210.15756 -6.14134,-3.86216 -0.36779,7.39882 z"
         id="path4264"
         inkscape:connector-curvature="0"
         sodipodi:nodetypes="cccc" />
    </g>
    <g
       id="g4325"
       inkscape:export-xdpi="71.897903"
       inkscape:export-ydpi="71.897903">
      <g
         id="g4322">
        <path
           style="fill:none;fill-rule:evenodd;stroke:#000000;stroke-width:2;stroke-linecap:butt;stroke-linejoin:miter;stroke-miterlimit:4;stroke-dasharray:none;stroke-opacity:1"
           d="m 354.89632,188.11649 c -6.37426,6.74921 5.62434,16.49808 0.37495,21.74746"
           id="path4268"
           inkscape:connector-curvature="0"
           sodipodi:nodetypes="cc" />
      </g>
      <path
         sodipodi:nodetypes="cccc"
         inkscape:connector-curvature="0"
         id="path4270"
         d="m 359.24374,210.15756 -6.14134,-3.86216 -0.36779,7.39882 z"
         style="fill:#000000;fill-rule:evenodd;stroke:none;stroke-width:1px;stroke-linecap:butt;stroke-linejoin:miter;stroke-opacity:1" />
    </g>
    <g
       id="g4330"
       transform="translate(2,0)"
       inkscape:export-xdpi="71.897903"
       inkscape:export-ydpi="71.897903">
      <path
         style="fill:none;fill-rule:evenodd;stroke:#000000;stroke-width:2;stroke-linecap:butt;stroke-linejoin:miter;stroke-miterlimit:4;stroke-dasharray:none;stroke-opacity:1"
         d="m 402.89632,188.11649 c -6.37426,6.74921 5.62434,16.49808 0.37495,21.74746"
         id="path4274"
         inkscape:connector-curvature="0"
         sodipodi:nodetypes="cc" />
      <path
         style="fill:#000000;fill-rule:evenodd;stroke:none;stroke-width:1px;stroke-linecap:butt;stroke-linejoin:miter;stroke-opacity:1"
         d="m 407.24374,210.15756 -6.14134,-3.86216 -0.36779,7.39882 z"
         id="path4276"
         inkscape:connector-curvature="0"
         sodipodi:nodetypes="cccc" />
    </g>
    <g
       id="g4334"
       inkscape:export-xdpi="71.897903"
       inkscape:export-ydpi="71.897903">
      <path
         sodipodi:nodetypes="cc"
         inkscape:connector-curvature="0"
         id="path4280"
         d="m 462.89632,188.11649 c -6.37426,6.74921 5.62434,16.49808 0.37495,21.74746"
         style="fill:none;fill-rule:evenodd;stroke:#000000;stroke-width:2;stroke-linecap:butt;stroke-linejoin:miter;stroke-miterlimit:4;stroke-dasharray:none;stroke-opacity:1" />
      <path
         sodipodi:nodetypes="cccc"
         inkscape:connector-curvature="0"
         id="path4282"
         d="m 467.24374,210.15756 -6.14134,-3.86216 -0.36779,7.39882 z"
         style="fill:#000000;fill-rule:evenodd;stroke:none;stroke-width:1px;stroke-linecap:butt;stroke-linejoin:miter;stroke-opacity:1" />
    </g>
    <rect
       style="opacity:1;fill:none;fill-opacity:1;fill-rule:evenodd;stroke:#000000;stroke-width:2;stroke-linecap:round;stroke-linejoin:round;stroke-miterlimit:4;stroke-dasharray:none;stroke-dashoffset:0;stroke-opacity:1"
       id="rect4284"
       width="83.546692"
       height="24.858521"
       x="125.05322"
       y="217.11826"
       inkscape:export-xdpi="71.897903"
       inkscape:export-ydpi="71.897903" />
    <rect
       style="opacity:1;fill:none;fill-opacity:1;fill-rule:evenodd;stroke:#000000;stroke-width:2;stroke-linecap:round;stroke-linejoin:round;stroke-miterlimit:4;stroke-dasharray:none;stroke-dashoffset:0;stroke-opacity:1"
       id="rect4286"
       width="83.546692"
       height="24.858521"
       x="225.05322"
       y="217.11826"
       inkscape:export-xdpi="71.897903"
       inkscape:export-ydpi="71.897903" />
    <rect
       style="opacity:1;fill:none;fill-opacity:1;fill-rule:evenodd;stroke:#000000;stroke-width:2;stroke-linecap:round;stroke-linejoin:round;stroke-miterlimit:4;stroke-dasharray:none;stroke-dashoffset:0;stroke-opacity:1"
       id="rect4288"
       width="83.546692"
       height="24.858517"
       x="325.05322"
       y="217.11826"
       inkscape:export-xdpi="71.897903"
       inkscape:export-ydpi="71.897903" />
    <rect
       style="opacity:1;fill:none;fill-opacity:1;fill-rule:evenodd;stroke:#000000;stroke-width:2;stroke-linecap:round;stroke-linejoin:round;stroke-miterlimit:4;stroke-dasharray:none;stroke-dashoffset:0;stroke-opacity:1"
       id="rect4290"
       width="83.546692"
       height="24.858521"
       x="425.05322"
       y="217.11826"
       inkscape:export-xdpi="71.897903"
       inkscape:export-ydpi="71.897903" />
    <g
       transform="matrix(1.2111013,0,0,1.2111013,86.565637,-301.79588)"
       style="font-style:normal;font-weight:normal;font-size:35px;line-height:125%;font-family:sans-serif;letter-spacing:0px;word-spacing:0px;fill:#000000;fill-opacity:1;stroke:none;stroke-width:1px;stroke-linecap:butt;stroke-linejoin:miter;stroke-opacity:1"
       id="flowRoot4340">
      <path
         d="m 52.953613,360.55627 q 0,2.56348 -1.367187,5.07569 -1.350098,2.5122 -3.776856,3.98193 -2.426758,1.46973 -4.716797,1.46973 -2.341308,0 -3.828125,-1.48682 -1.469726,-1.50391 -1.469726,-3.8794 0,-2.5122 1.435547,-5.0415 1.452636,-2.5293 3.862304,-3.99902 2.426758,-1.46973 4.682618,-1.46973 2.255859,0 3.708496,1.48682 1.469726,1.48681 1.469726,3.8623 z m -2.836914,-1.1792 q 0,-1.58935 -0.786133,-2.42676 -0.769043,-0.85449 -1.999511,-0.85449 -2.512207,0 -4.631348,3.60596 -2.102051,3.58887 -2.102051,7.14355 0,1.62354 0.820313,2.51221 0.820312,0.87158 2.067871,0.87158 2.409668,0 4.511719,-3.57177 2.11914,-3.58887 2.11914,-7.28028 z"
         style="font-style:italic;font-variant:normal;font-weight:normal;font-stretch:normal;font-family:'Times New Roman';-inkscape-font-specification:'Times New Roman,  Italic'"
         id="path4771" />
    </g>
    <g
       transform="matrix(0.66744128,0,0,0.66744128,125.39196,-94.191528)"
       style="font-style:normal;font-weight:normal;font-size:35px;line-height:125%;font-family:sans-serif;letter-spacing:0px;word-spacing:0px;fill:#000000;fill-opacity:1;stroke:none;stroke-width:1px;stroke-linecap:butt;stroke-linejoin:miter;stroke-opacity:1"
       id="flowRoot4348">
      <path
         d="m 40.871094,349.77258 5.639648,-2.75146 0.563965,0 0,19.56787 q 0,1.94824 0.153809,2.42675 0.170898,0.47852 0.683593,0.73487 0.512696,0.25635 2.084961,0.29052 l 0,0.63233 -8.71582,0 0,-0.63233 q 1.640625,-0.0342 2.119141,-0.27343 0.478515,-0.25635 0.666504,-0.66651 0.187988,-0.42724 0.187988,-2.5122 l 0,-12.50977 q 0,-2.5293 -0.170899,-3.24707 -0.119629,-0.54687 -0.444336,-0.80322 -0.307617,-0.25635 -0.751953,-0.25635 -0.632324,0 -1.760254,0.52979 l -0.256347,-0.52979 z"
         style="font-style:normal;font-variant:normal;font-weight:normal;font-stretch:normal;font-family:'Times New Roman';-inkscape-font-specification:'Times New Roman, '"
         id="path4768" />
    </g>
    <flowRoot
       xml:space="preserve"
       id="flowRoot4468"
       style="font-style:normal;font-weight:normal;font-size:1.25px;line-height:125%;font-family:sans-serif;letter-spacing:0px;word-spacing:0px;fill:#000000;fill-opacity:1;stroke:none;stroke-width:1px;stroke-linecap:butt;stroke-linejoin:miter;stroke-opacity:1"><flowRegion
         id="flowRegion4470"><rect
           id="rect4472"
           width="4.9497476"
           height="3.5355339"
           x="138.59293"
           y="348.79095" /></flowRegion><flowPara
         id="flowPara4474"></flowPara></flowRoot>    <g
       transform="matrix(1.2111013,0,0,1.2111013,164.56564,-301.79588)"
       style="font-style:normal;font-weight:normal;font-size:35px;line-height:125%;font-family:sans-serif;letter-spacing:0px;word-spacing:0px;fill:#000000;fill-opacity:1;stroke:none;stroke-width:1px;stroke-linecap:butt;stroke-linejoin:miter;stroke-opacity:1"
       id="flowRoot4476">
      <path
         d="m 52.953613,360.55627 q 0,2.56348 -1.367187,5.07569 -1.350098,2.5122 -3.776856,3.98193 -2.426758,1.46973 -4.716797,1.46973 -2.341308,0 -3.828125,-1.48682 -1.469726,-1.50391 -1.469726,-3.8794 0,-2.5122 1.435547,-5.0415 1.452636,-2.5293 3.862304,-3.99902 2.426758,-1.46973 4.682618,-1.46973 2.255859,0 3.708496,1.48682 1.469726,1.48681 1.469726,3.8623 z m -2.836914,-1.1792 q 0,-1.58935 -0.786133,-2.42676 -0.769043,-0.85449 -1.999511,-0.85449 -2.512207,0 -4.631348,3.60596 -2.102051,3.58887 -2.102051,7.14355 0,1.62354 0.820313,2.51221 0.820312,0.87158 2.067871,0.87158 2.409668,0 4.511719,-3.57177 2.11914,-3.58887 2.11914,-7.28028 z"
         style="font-style:italic;font-variant:normal;font-weight:normal;font-stretch:normal;font-family:'Times New Roman';-inkscape-font-specification:'Times New Roman,  Italic'"
         id="path4765" />
    </g>
    <g
       transform="matrix(0.66744128,0,0,0.66744128,203.39196,-94.191528)"
       style="font-style:normal;font-weight:normal;font-size:35px;line-height:125%;font-family:sans-serif;letter-spacing:0px;word-spacing:0px;fill:#000000;fill-opacity:1;stroke:none;stroke-width:1px;stroke-linecap:butt;stroke-linejoin:miter;stroke-opacity:1"
       id="flowRoot4484">
      <path
         d="m 52.816895,366.21301 -1.623536,4.46045 -13.671875,0 0,-0.63233 q 6.032715,-5.50292 8.493653,-8.98925 2.460937,-3.48633 2.460937,-6.37451 0,-2.20459 -1.350097,-3.62305 -1.350098,-1.41846 -3.229981,-1.41846 -1.708984,0 -3.076172,1.0083 -1.350097,0.99121 -1.999512,2.92237 l -0.632324,0 q 0.427246,-3.16163 2.1875,-4.85352 1.777344,-1.69189 4.42627,-1.69189 2.819824,0 4.699707,1.81152 1.896972,1.81152 1.896972,4.27246 0,1.76025 -0.820312,3.52051 -1.264648,2.76855 -4.101563,5.86181 -4.255371,4.64844 -5.314941,5.60547 l 6.049805,0 q 1.845703,0 2.580566,-0.13672 0.751953,-0.13671 1.350098,-0.54687 0.598144,-0.42725 1.04248,-1.19629 l 0.632325,0 z"
         style="font-style:normal;font-variant:normal;font-weight:normal;font-stretch:normal;font-family:'Times New Roman';-inkscape-font-specification:'Times New Roman, '"
         id="path4762" />
    </g>
    <g
       transform="matrix(1.2111013,0,0,1.2111013,272.56564,-301.79588)"
       style="font-style:normal;font-weight:normal;font-size:35px;line-height:125%;font-family:sans-serif;letter-spacing:0px;word-spacing:0px;fill:#000000;fill-opacity:1;stroke:none;stroke-width:1px;stroke-linecap:butt;stroke-linejoin:miter;stroke-opacity:1"
       id="flowRoot4492">
      <path
         d="m 52.953613,360.55627 q 0,2.56348 -1.367187,5.07569 -1.350098,2.5122 -3.776856,3.98193 -2.426758,1.46973 -4.716797,1.46973 -2.341308,0 -3.828125,-1.48682 -1.469726,-1.50391 -1.469726,-3.8794 0,-2.5122 1.435547,-5.0415 1.452636,-2.5293 3.862304,-3.99902 2.426758,-1.46973 4.682618,-1.46973 2.255859,0 3.708496,1.48682 1.469726,1.48681 1.469726,3.8623 z m -2.836914,-1.1792 q 0,-1.58935 -0.786133,-2.42676 -0.769043,-0.85449 -1.999511,-0.85449 -2.512207,0 -4.631348,3.60596 -2.102051,3.58887 -2.102051,7.14355 0,1.62354 0.820313,2.51221 0.820312,0.87158 2.067871,0.87158 2.409668,0 4.511719,-3.57177 2.11914,-3.58887 2.11914,-7.28028 z"
         style="font-style:italic;font-variant:normal;font-weight:normal;font-stretch:normal;font-family:'Times New Roman';-inkscape-font-specification:'Times New Roman,  Italic'"
         id="path4759" />
    </g>
    <g
       transform="matrix(0.66744128,0,0,0.66744128,311.39196,-94.191528)"
       style="font-style:normal;font-weight:normal;font-size:35px;line-height:125%;font-family:sans-serif;letter-spacing:0px;word-spacing:0px;fill:#000000;fill-opacity:1;stroke:none;stroke-width:1px;stroke-linecap:butt;stroke-linejoin:miter;stroke-opacity:1"
       id="flowRoot4500">
      <path
         d="m 38.546875,351.90881 q 0.991211,-2.34131 2.495117,-3.60596 1.520996,-1.28173 3.776856,-1.28173 2.785644,0 4.272461,1.81152 1.127929,1.3501 1.127929,2.88818 0,2.5293 -3.178711,5.22949 2.136231,0.83741 3.229981,2.39258 1.09375,1.55518 1.09375,3.65723 0,3.00781 -1.914063,5.2124 -2.495117,2.8711 -7.229004,2.8711 -2.341308,0 -3.1958,-0.58106 -0.837403,-0.58105 -0.837403,-1.24756 0,-0.4956 0.393067,-0.87158 0.410156,-0.37598 0.974121,-0.37598 0.427246,0 0.871582,0.13672 0.290527,0.0854 1.315918,0.63233 1.02539,0.52978 1.418457,0.63232 0.632324,0.18799 1.350097,0.18799 1.743165,0 3.024903,-1.3501 1.298828,-1.3501 1.298828,-3.1958 0,-1.3501 -0.598145,-2.63184 -0.444336,-0.95703 -0.974121,-1.45263 -0.734863,-0.6836 -2.016601,-1.23047 -1.281739,-0.56397 -2.614746,-0.56397 l -0.546875,0 0,-0.51269 q 1.350097,-0.1709 2.700195,-0.97412 1.367187,-0.80322 1.982422,-1.93115 0.615234,-1.12793 0.615234,-2.47803 0,-1.76026 -1.11084,-2.83692 -1.09375,-1.09375 -2.734375,-1.09375 -2.648925,0 -4.426269,2.83692 l -0.563965,-0.27344 z"
         style="font-style:normal;font-variant:normal;font-weight:normal;font-stretch:normal;font-family:'Times New Roman';-inkscape-font-specification:'Times New Roman, '"
         id="path4756" />
    </g>
    <g
       transform="matrix(1.2111013,0,0,1.2111013,396.56564,-301.79588)"
       style="font-style:normal;font-weight:normal;font-size:35px;line-height:125%;font-family:sans-serif;letter-spacing:0px;word-spacing:0px;fill:#000000;fill-opacity:1;stroke:none;stroke-width:1px;stroke-linecap:butt;stroke-linejoin:miter;stroke-opacity:1"
       id="flowRoot4508">
      <path
         d="m 52.953613,360.55627 q 0,2.56348 -1.367187,5.07569 -1.350098,2.5122 -3.776856,3.98193 -2.426758,1.46973 -4.716797,1.46973 -2.341308,0 -3.828125,-1.48682 -1.469726,-1.50391 -1.469726,-3.8794 0,-2.5122 1.435547,-5.0415 1.452636,-2.5293 3.862304,-3.99902 2.426758,-1.46973 4.682618,-1.46973 2.255859,0 3.708496,1.48682 1.469726,1.48681 1.469726,3.8623 z m -2.836914,-1.1792 q 0,-1.58935 -0.786133,-2.42676 -0.769043,-0.85449 -1.999511,-0.85449 -2.512207,0 -4.631348,3.60596 -2.102051,3.58887 -2.102051,7.14355 0,1.62354 0.820313,2.51221 0.820312,0.87158 2.067871,0.87158 2.409668,0 4.511719,-3.57177 2.11914,-3.58887 2.11914,-7.28028 z"
         style="font-style:italic;font-variant:normal;font-weight:normal;font-stretch:normal;font-family:'Times New Roman';-inkscape-font-specification:'Times New Roman,  Italic'"
         id="path4753" />
    </g>
    <g
       transform="translate(242.34672,-213.54625)"
       style="font-style:normal;font-weight:normal;font-size:23.36044502px;line-height:125%;font-family:sans-serif;letter-spacing:0px;word-spacing:0px;fill:#000000;fill-opacity:1;stroke:none;stroke-width:1px;stroke-linecap:butt;stroke-linejoin:miter;stroke-opacity:1"
       id="flowRoot4516">
      <path
         d="m 228.4563,361.05455 0,1.61972 -2.07598,0 0,4.08352 -1.88206,0 0,-4.08352 -6.54732,0 0,-1.46003 7.17467,-10.243 1.25471,0 0,10.08331 2.07598,0 z m -3.95804,0 0,-7.67655 -5.42948,7.67655 5.42948,0 z"
         style="font-style:normal;font-variant:normal;font-weight:normal;font-stretch:normal;font-family:'Times New Roman';-inkscape-font-specification:'Times New Roman, '"
         id="path4750" />
    </g>
    <g
       transform="matrix(1.2111013,0,0,1.2111013,112.21892,-174.24963)"
       style="font-style:normal;font-weight:normal;font-size:35px;line-height:125%;font-family:sans-serif;letter-spacing:0px;word-spacing:0px;fill:#000000;fill-opacity:1;stroke:none;stroke-width:1px;stroke-linecap:butt;stroke-linejoin:miter;stroke-opacity:1"
       id="flowRoot4524">
      <path
         d="m 53.192871,355.20715 -3.332519,11.58691 -0.375977,1.55518 q -0.05127,0.22217 -0.05127,0.37598 0,0.27343 0.170899,0.47851 0.136719,0.15381 0.341797,0.15381 0.222168,0 0.581054,-0.27344 0.666504,-0.4956 1.777344,-2.05078 l 0.581055,0.41016 q -1.179199,1.77734 -2.426758,2.71728 -1.247559,0.92286 -2.307129,0.92286 -0.734863,0 -1.11084,-0.37598 -0.358886,-0.35889 -0.358886,-1.05957 0,-0.8374 0.375976,-2.20459 l 0.358887,-1.28174 q -2.23877,2.92236 -4.118652,4.08447 -1.350098,0.83741 -2.648926,0.83741 -1.247559,0 -2.153321,-1.0254 -0.905761,-1.04248 -0.905761,-2.854 0,-2.71728 1.623535,-5.7251 1.640625,-3.0249 4.152832,-4.83642 1.965332,-1.43555 3.708496,-1.43555 1.04248,0 1.726074,0.54688 0.700684,0.54687 1.059571,1.81152 l 0.615234,-1.94824 2.717285,-0.41016 z m -6.083984,0.88867 q -1.09375,0 -2.324219,1.02539 -1.743164,1.45264 -3.110352,4.30664 -1.350097,2.85401 -1.350097,5.16114 0,1.16211 0.581054,1.8457 0.581055,0.6665 1.333008,0.6665 1.862793,0 4.050293,-2.75146 2.922363,-3.65723 2.922363,-7.50244 0,-1.45264 -0.563964,-2.10205 -0.563965,-0.64942 -1.538086,-0.64942 z"
         style="font-style:italic;font-variant:normal;font-weight:normal;font-stretch:normal;font-family:'Times New Roman';-inkscape-font-specification:'Times New Roman,  Italic'"
         id="path4795" />
    </g>
    <g
       transform="translate(98,-106)"
       style="font-style:normal;font-weight:normal;font-size:23.36044502px;line-height:125%;font-family:sans-serif;letter-spacing:0px;word-spacing:0px;fill:#000000;fill-opacity:1;stroke:none;stroke-width:1px;stroke-linecap:butt;stroke-linejoin:miter;stroke-opacity:1"
       id="flowRoot4532">
      <path
         d="m 80.32349,372.80768 3.764134,-1.83644 0.376413,0 0,13.0604 q 0,1.30034 0.102658,1.61972 0.114065,0.31938 0.456259,0.49048 0.342194,0.1711 1.391589,0.19391 l 0,0.42204 -5.817298,0 0,-0.42204 q 1.095021,-0.0228 1.414402,-0.18251 0.319381,-0.17109 0.444852,-0.44485 0.125471,-0.28516 0.125471,-1.67675 l 0,-8.34953 q 0,-1.68816 -0.114064,-2.16723 -0.07985,-0.36501 -0.296569,-0.53611 -0.205316,-0.17109 -0.501884,-0.17109 -0.422039,0 -1.174866,0.3536 l -0.171097,-0.3536 z"
         style="font-style:normal;font-variant:normal;font-weight:normal;font-stretch:normal;font-family:'Times New Roman';-inkscape-font-specification:'Times New Roman, '"
         id="path4792" />
    </g>
    <g
       transform="translate(138,-106)"
       style="font-style:normal;font-weight:normal;font-size:42.38854599px;line-height:125%;font-family:sans-serif;letter-spacing:0px;word-spacing:0px;fill:#000000;fill-opacity:1;stroke:none;stroke-width:1px;stroke-linecap:butt;stroke-linejoin:miter;stroke-opacity:1"
       id="flowRoot4540">
      <path
         d="m 138.64033,361.94311 -4.03602,14.03292 -0.45535,1.88348 q -0.0621,0.26907 -0.0621,0.45534 0,0.33116 0.20698,0.57954 0.16558,0.18627 0.41395,0.18627 0.26907,0 0.70371,-0.33116 0.80721,-0.60023 2.15255,-2.4837 l 0.70371,0.49674 q -1.42813,2.15254 -2.93905,3.29091 -1.51092,1.11766 -2.79416,1.11766 -0.89,0 -1.34534,-0.45534 -0.43465,-0.43465 -0.43465,-1.28325 0,-1.01418 0.45534,-2.66998 l 0.43465,-1.55232 q -2.71137,3.53928 -4.9881,4.94671 -1.63511,1.01418 -3.20812,1.01418 -1.51092,0 -2.60789,-1.24185 -1.09697,-1.26255 -1.09697,-3.45649 0,-3.2909 1.96627,-6.93367 1.98696,-3.66346 5.0295,-5.8574 2.38021,-1.73859 4.49136,-1.73859 1.26255,0 2.09045,0.66232 0.8486,0.66232 1.28325,2.19394 l 0.74511,-2.35952 3.29091,-0.49674 z m -7.36832,1.07627 q -1.32465,0 -2.81487,1.24185 -2.11115,1.75929 -3.76695,5.21578 -1.6351,3.45649 -1.6351,6.25065 0,1.40743 0.70371,2.23534 0.70372,0.8072 1.61441,0.8072 2.25603,0 4.90532,-3.3323 3.53927,-4.42927 3.53927,-9.08622 0,-1.75929 -0.68302,-2.5458 -0.68301,-0.7865 -1.86277,-0.7865 z"
         style="font-style:italic;font-variant:normal;font-weight:normal;font-stretch:normal;font-family:'Times New Roman';-inkscape-font-specification:'Times New Roman,  Italic'"
         id="path4789" />
    </g>
    <g
       transform="matrix(0.66744128,0,0,0.66744128,251.04524,33.35472)"
       style="font-style:normal;font-weight:normal;font-size:35px;line-height:125%;font-family:sans-serif;letter-spacing:0px;word-spacing:0px;fill:#000000;fill-opacity:1;stroke:none;stroke-width:1px;stroke-linecap:butt;stroke-linejoin:miter;stroke-opacity:1"
       id="flowRoot4548">
      <path
         d="m 52.816895,366.21301 -1.623536,4.46045 -13.671875,0 0,-0.63233 q 6.032715,-5.50292 8.493653,-8.98925 2.460937,-3.48633 2.460937,-6.37451 0,-2.20459 -1.350097,-3.62305 -1.350098,-1.41846 -3.229981,-1.41846 -1.708984,0 -3.076172,1.0083 -1.350097,0.99121 -1.999512,2.92237 l -0.632324,0 q 0.427246,-3.16163 2.1875,-4.85352 1.777344,-1.69189 4.42627,-1.69189 2.819824,0 4.699707,1.81152 1.896972,1.81152 1.896972,4.27246 0,1.76025 -0.820312,3.52051 -1.264648,2.76855 -4.101563,5.86181 -4.255371,4.64844 -5.314941,5.60547 l 6.049805,0 q 1.845703,0 2.580566,-0.13672 0.751953,-0.13671 1.350098,-0.54687 0.598144,-0.42725 1.04248,-1.19629 l 0.632325,0 z"
         style="font-style:normal;font-variant:normal;font-weight:normal;font-stretch:normal;font-family:'Times New Roman';-inkscape-font-specification:'Times New Roman, '"
         id="path4786" />
    </g>
    <g
       transform="translate(178,-106)"
       style="font-style:normal;font-weight:normal;font-size:42.38854599px;line-height:125%;font-family:sans-serif;letter-spacing:0px;word-spacing:0px;fill:#000000;fill-opacity:1;stroke:none;stroke-width:1px;stroke-linecap:butt;stroke-linejoin:miter;stroke-opacity:1"
       id="flowRoot4556">
      <path
         d="m 198.64033,361.94311 -4.03602,14.03292 -0.45535,1.88348 q -0.0621,0.26907 -0.0621,0.45534 0,0.33116 0.20698,0.57954 0.16558,0.18627 0.41395,0.18627 0.26907,0 0.70371,-0.33116 0.80721,-0.60023 2.15255,-2.4837 l 0.70371,0.49674 q -1.42813,2.15254 -2.93905,3.29091 -1.51092,1.11766 -2.79416,1.11766 -0.89,0 -1.34534,-0.45534 -0.43465,-0.43465 -0.43465,-1.28325 0,-1.01418 0.45534,-2.66998 l 0.43465,-1.55232 q -2.71137,3.53928 -4.9881,4.94671 -1.63511,1.01418 -3.20812,1.01418 -1.51092,0 -2.60789,-1.24185 -1.09697,-1.26255 -1.09697,-3.45649 0,-3.2909 1.96627,-6.93367 1.98696,-3.66346 5.0295,-5.8574 2.38021,-1.73859 4.49136,-1.73859 1.26255,0 2.09045,0.66232 0.8486,0.66232 1.28325,2.19394 l 0.74511,-2.35952 3.29091,-0.49674 z m -7.36832,1.07627 q -1.32465,0 -2.81487,1.24185 -2.11115,1.75929 -3.76695,5.21578 -1.6351,3.45649 -1.6351,6.25065 0,1.40743 0.70371,2.23534 0.70372,0.8072 1.61441,0.8072 2.25603,0 4.90532,-3.3323 3.53927,-4.42927 3.53927,-9.08622 0,-1.75929 -0.68302,-2.5458 -0.68301,-0.7865 -1.86277,-0.7865 z"
         style="font-style:italic;font-variant:normal;font-weight:normal;font-stretch:normal;font-family:'Times New Roman';-inkscape-font-specification:'Times New Roman,  Italic'"
         id="path4783" />
    </g>
    <g
       transform="matrix(0.66744128,0,0,0.66744128,351.04524,33.35472)"
       style="font-style:normal;font-weight:normal;font-size:35px;line-height:125%;font-family:sans-serif;letter-spacing:0px;word-spacing:0px;fill:#000000;fill-opacity:1;stroke:none;stroke-width:1px;stroke-linecap:butt;stroke-linejoin:miter;stroke-opacity:1"
       id="flowRoot4564">
      <path
         d="m 38.546875,351.90881 q 0.991211,-2.34131 2.495117,-3.60596 1.520996,-1.28173 3.776856,-1.28173 2.785644,0 4.272461,1.81152 1.127929,1.3501 1.127929,2.88818 0,2.5293 -3.178711,5.22949 2.136231,0.83741 3.229981,2.39258 1.09375,1.55518 1.09375,3.65723 0,3.00781 -1.914063,5.2124 -2.495117,2.8711 -7.229004,2.8711 -2.341308,0 -3.1958,-0.58106 -0.837403,-0.58105 -0.837403,-1.24756 0,-0.4956 0.393067,-0.87158 0.410156,-0.37598 0.974121,-0.37598 0.427246,0 0.871582,0.13672 0.290527,0.0854 1.315918,0.63233 1.02539,0.52978 1.418457,0.63232 0.632324,0.18799 1.350097,0.18799 1.743165,0 3.024903,-1.3501 1.298828,-1.3501 1.298828,-3.1958 0,-1.3501 -0.598145,-2.63184 -0.444336,-0.95703 -0.974121,-1.45263 -0.734863,-0.6836 -2.016601,-1.23047 -1.281739,-0.56397 -2.614746,-0.56397 l -0.546875,0 0,-0.51269 q 1.350097,-0.1709 2.700195,-0.97412 1.367187,-0.80322 1.982422,-1.93115 0.615234,-1.12793 0.615234,-2.47803 0,-1.76026 -1.11084,-2.83692 -1.09375,-1.09375 -2.734375,-1.09375 -2.648925,0 -4.426269,2.83692 l -0.563965,-0.27344 z"
         style="font-style:normal;font-variant:normal;font-weight:normal;font-stretch:normal;font-family:'Times New Roman';-inkscape-font-specification:'Times New Roman, '"
         id="path4780" />
    </g>
    <g
       transform="matrix(1.2111013,0,0,1.2111013,412.21892,-174.24963)"
       style="font-style:normal;font-weight:normal;font-size:35px;line-height:125%;font-family:sans-serif;letter-spacing:0px;word-spacing:0px;fill:#000000;fill-opacity:1;stroke:none;stroke-width:1px;stroke-linecap:butt;stroke-linejoin:miter;stroke-opacity:1"
       id="flowRoot4572">
      <path
         d="m 53.192871,355.20715 -3.332519,11.58691 -0.375977,1.55518 q -0.05127,0.22217 -0.05127,0.37598 0,0.27343 0.170899,0.47851 0.136719,0.15381 0.341797,0.15381 0.222168,0 0.581054,-0.27344 0.666504,-0.4956 1.777344,-2.05078 l 0.581055,0.41016 q -1.179199,1.77734 -2.426758,2.71728 -1.247559,0.92286 -2.307129,0.92286 -0.734863,0 -1.11084,-0.37598 -0.358886,-0.35889 -0.358886,-1.05957 0,-0.8374 0.375976,-2.20459 l 0.358887,-1.28174 q -2.23877,2.92236 -4.118652,4.08447 -1.350098,0.83741 -2.648926,0.83741 -1.247559,0 -2.153321,-1.0254 -0.905761,-1.04248 -0.905761,-2.854 0,-2.71728 1.623535,-5.7251 1.640625,-3.0249 4.152832,-4.83642 1.965332,-1.43555 3.708496,-1.43555 1.04248,0 1.726074,0.54688 0.700684,0.54687 1.059571,1.81152 l 0.615234,-1.94824 2.717285,-0.41016 z m -6.083984,0.88867 q -1.09375,0 -2.324219,1.02539 -1.743164,1.45264 -3.110352,4.30664 -1.350097,2.85401 -1.350097,5.16114 0,1.16211 0.581054,1.8457 0.581055,0.6665 1.333008,0.6665 1.862793,0 4.050293,-2.75146 2.922363,-3.65723 2.922363,-7.50244 0,-1.45264 -0.563964,-2.10205 -0.563965,-0.64942 -1.538086,-0.64942 z"
         style="font-style:italic;font-variant:normal;font-weight:normal;font-stretch:normal;font-family:'Times New Roman';-inkscape-font-specification:'Times New Roman,  Italic'"
         id="path4777" />
    </g>
    <g
       transform="translate(258,-86)"
       style="font-style:normal;font-weight:normal;font-size:23.36044502px;line-height:125%;font-family:sans-serif;letter-spacing:0px;word-spacing:0px;fill:#000000;fill-opacity:1;stroke:none;stroke-width:1px;stroke-linecap:butt;stroke-linejoin:miter;stroke-opacity:1"
       id="flowRoot4580">
      <path
         d="m 228.4563,361.05455 0,1.61972 -2.07598,0 0,4.08352 -1.88206,0 0,-4.08352 -6.54732,0 0,-1.46003 7.17467,-10.243 1.25471,0 0,10.08331 2.07598,0 z m -3.95804,0 0,-7.67655 -5.42948,7.67655 5.42948,0 z"
         style="font-style:normal;font-variant:normal;font-weight:normal;font-stretch:normal;font-family:'Times New Roman';-inkscape-font-specification:'Times New Roman, '"
         id="path4774" />
    </g>
  </g>
</svg>
